<?xml version="1.0" encoding="UTF-8" standalone="no"?>
<svg
   xmlns:dc="http://purl.org/dc/elements/1.1/"
   xmlns:cc="http://creativecommons.org/ns#"
   xmlns:rdf="http://www.w3.org/1999/02/22-rdf-syntax-ns#"
   xmlns:svg="http://www.w3.org/2000/svg"
   xmlns="http://www.w3.org/2000/svg"
   xmlns:sodipodi="http://sodipodi.sourceforge.net/DTD/sodipodi-0.dtd"
   xmlns:inkscape="http://www.inkscape.org/namespaces/inkscape"
   sodipodi:docname="Logo.svg"
   inkscape:version="1.0beta2 (2b71d25, 2019-12-03)"
   id="svg8"
   version="1.1"
   viewBox="0 0 210 297"
   height="297mm"
   width="210mm">
  <defs
     id="defs2" />
  <sodipodi:namedview
     inkscape:window-maximized="0"
     inkscape:window-y="23"
     inkscape:window-x="1985"
     inkscape:window-height="1035"
     inkscape:window-width="1353"
     inkscape:object-nodes="false"
     inkscape:snap-object-midpoints="true"
     inkscape:bbox-nodes="false"
     inkscape:snap-bbox-midpoints="false"
     inkscape:bbox-paths="true"
     inkscape:snap-bbox="true"
     showgrid="true"
     inkscape:document-rotation="0"
     inkscape:current-layer="layer1"
     inkscape:document-units="mm"
     inkscape:cy="147.00001"
     inkscape:cx="376.45583"
     inkscape:zoom="1.238548"
     inkscape:pageshadow="2"
     inkscape:pageopacity="0.0"
     borderopacity="1.0"
     bordercolor="#666666"
     pagecolor="#ffffff"
     id="base">
    <inkscape:grid
       id="grid873"
       type="xygrid" />
  </sodipodi:namedview>
  <metadata
     id="metadata5">
    <rdf:RDF>
      <cc:Work
         rdf:about="">
        <dc:format>image/svg+xml</dc:format>
        <dc:type
           rdf:resource="http://purl.org/dc/dcmitype/StillImage" />
        <dc:title></dc:title>
      </cc:Work>
    </rdf:RDF>
  </metadata>
  <g
     id="layer1"
     inkscape:groupmode="layer"
     inkscape:label="Layer 1">
    <g
       transform="translate(-11.30384,-27.239199)"
       id="g1284">
      <g
         id="g1245"
         transform="matrix(0.93774023,0,0,0.93774023,8.3092581,3.673084)">
        <rect
           transform="rotate(146.87514)"
           style="fill:none;stroke:#000000;stroke-width:0.8;stroke-linecap:round;stroke-miterlimit:4;stroke-dasharray:none;stroke-opacity:1"
           id="rect935"
           width="9.2569141"
           height="9.2569141"
           x="5.7068276"
           y="-61.510944"
           ry="1.0557259" />
        <rect
           ry="1.0557259"
           y="-38.770149"
           x="49.770176"
           height="9.2569141"
           width="9.2569141"
           id="rect897"
           style="fill:none;stroke:#000000;stroke-width:0.8;stroke-linecap:round;stroke-miterlimit:4;stroke-dasharray:none;stroke-opacity:1"
           transform="rotate(90.392791)" />
        <ellipse
           ry="1.0000007"
           rx="1"
           cy="52.676907"
           cx="31.75"
           id="ellipse901"
           style="fill:#ff0000;fill-opacity:1;stroke:none;stroke-width:0.908903;stroke-linecap:round;stroke-miterlimit:4;stroke-dasharray:none;stroke-opacity:1" />
        <ellipse
           style="fill:#ff0000;fill-opacity:1;stroke:none;stroke-width:0.908906;stroke-linecap:round;stroke-miterlimit:4;stroke-dasharray:none;stroke-opacity:1"
           id="ellipse907"
           cx="35.71875"
           cy="56.645657"
           rx="1"
           ry="1.0000007" />
        <ellipse
           transform="rotate(56.482347)"
           style="fill:#ff0000;fill-opacity:1;stroke:none;stroke-width:0.908903;stroke-linecap:round;stroke-miterlimit:4;stroke-dasharray:none;stroke-opacity:1"
           id="ellipse937"
           cx="54.792336"
           cy="8.7704897"
           rx="1"
           ry="1.0000007" />
        <ellipse
           transform="rotate(56.482347)"
           ry="1.0000007"
           rx="1"
           cy="12.73924"
           cx="58.761086"
           id="ellipse939"
           style="fill:#ff0000;fill-opacity:1;stroke:none;stroke-width:0.908906;stroke-linecap:round;stroke-miterlimit:4;stroke-dasharray:none;stroke-opacity:1" />
        <ellipse
           transform="rotate(56.482347)"
           style="fill:#ff0000;fill-opacity:1;stroke:none;stroke-width:0.908906;stroke-linecap:round;stroke-miterlimit:4;stroke-dasharray:none;stroke-opacity:1"
           id="ellipse941"
           cx="58.761086"
           cy="8.7704897"
           rx="1"
           ry="1.0000007" />
        <ellipse
           transform="rotate(56.482347)"
           ry="1.0000007"
           rx="1"
           cy="12.73924"
           cx="54.792336"
           id="ellipse943"
           style="fill:#ff0000;fill-opacity:1;stroke:none;stroke-width:0.908906;stroke-linecap:round;stroke-miterlimit:4;stroke-dasharray:none;stroke-opacity:1" />
      </g>
      <g
         id="g1163"
         transform="matrix(1.1916604,0,0,1.1916604,6.0345712,-6.6031177)">
        <g
           transform="translate(0.25903567,-0.103445)"
           id="g1142">
          <path
             inkscape:connector-curvature="0"
             d="m 65.974495,40.967487 -3.746048,2.506736 c -0.106152,0.0711 -0.218251,0.03361 -0.279888,-0.0437 -0.06019,-0.07569 -0.07254,-0.189415 0.01586,-0.277815 l 1.845044,-1.845044 h -1.226605 c -0.186081,0 -0.279528,-0.22519 -0.147784,-0.356844 l 1.973724,-1.973543 h 1.762681 l -1.607508,1.607418 h 1.294279 c 0.206627,0 0.287908,0.267813 0.116245,0.382796 z m 0,0"
             fill="#f6cb43"
             id="path1051"
             style="fill:#f6cb43;fill-opacity:0.821862;stroke-width:0.0230687" />
          <path
             inkscape:connector-curvature="0"
             d="m 65.974495,40.967487 -3.746048,2.506736 c -0.106152,0.0711 -0.218251,0.03361 -0.279888,-0.0437 l 3.098773,-2.476549 h -1.229128 c -0.186262,0 -0.279528,-0.22519 -0.147874,-0.356934 l 1.619674,-1.619854 h 0.881475 l -1.607598,1.607509 h 1.294369 c 0.206627,0 0.287908,0.267813 0.116245,0.382796 z m 0,0"
             fill="#fab03c"
             id="path1053"
             style="fill:#fab03c;fill-opacity:0.728745;stroke-width:0.0230687" />
        </g>
        <g
           id="g1138">
          <g
             fill="#a0ecff"
             id="g1049"
             transform="matrix(0.02306868,0,0,0.02306868,60.079726,33.327068)"
             style="fill:#00ceff;fill-opacity:1">
            <path
               inkscape:connector-curvature="0"
               d="m 7.613281,374.90234 c -1.949219,0 -3.898437,-0.74609 -5.382812,-2.23047 -2.972657,-2.97265 -2.972657,-7.79296 0,-10.76562 L 136.45312,227.68359 c 2.97266,-2.97265 7.79297,-2.97265 10.76563,0 2.97266,2.97266 2.97266,7.79297 0,10.76172 L 12.992188,372.67187 c -1.484376,1.48438 -3.433594,2.23047 -5.378907,2.23047 z m 0,0"
               id="path1041"
               style="fill:#00ceff;fill-opacity:1" />
            <path
               inkscape:connector-curvature="0"
               d="m 24.058594,324.94531 c -1.945313,0 -3.894532,-0.74219 -5.378906,-2.22656 -2.976563,-2.97266 -2.976563,-7.79297 0,-10.76563 l 17.15625,-17.16015 c 2.972656,-2.96875 7.792968,-2.96875 10.765624,0 2.972657,2.97265 2.972657,7.79297 0,10.76562 l -17.160156,17.16016 c -1.484375,1.48437 -3.433594,2.22656 -5.382812,2.22656 z m 0,0"
               id="path1043"
               style="fill:#00ceff;fill-opacity:1" />
            <path
               inkscape:connector-curvature="0"
               d="m 57.691406,402.20312 c -1.949218,0 -3.898437,-0.74218 -5.382812,-2.22656 -2.972656,-2.97265 -2.972656,-7.79297 0,-10.76562 l 17.15625,-17.15625 c 2.972656,-2.97266 7.792968,-2.97266 10.765625,0 2.972656,2.97265 2.972656,7.79297 0,10.76172 l -17.15625,17.16015 c -1.488281,1.48438 -3.433594,2.22656 -5.382813,2.22656 z m 0,0"
               id="path1045"
               style="fill:#00ceff;fill-opacity:1" />
            <path
               inkscape:connector-curvature="0"
               d="m 351.90234,374.90234 c -1.94922,0 -3.89843,-0.74609 -5.38281,-2.23047 -2.97265,-2.97265 -2.97265,-7.79296 0,-10.76562 L 480.74219,227.68359 c 2.97265,-2.97265 7.79297,-2.97265 10.76562,0 2.97266,2.97266 2.97266,7.79297 0,10.76172 L 357.28516,372.67187 c -1.48828,1.48438 -3.4375,2.23047 -5.38282,2.23047 z m 0,0"
               id="path1047"
               style="fill:#00ceff;fill-opacity:1" />
          </g>
          <path
             inkscape:connector-curvature="0"
             d="m 67.179473,41.597911 c -0.04488,0 -0.08984,-0.01712 -0.124175,-0.05136 -0.06857,-0.06857 -0.06857,-0.179774 0,-0.248349 l 1.370604,-1.370604 c 0.06858,-0.06857 0.179774,-0.06857 0.248349,0 0.06857,0.06858 0.06857,0.179774 0,0.248349 l -1.370604,1.370604 c -0.03433,0.03424 -0.07921,0.05136 -0.124174,0.05136 z m 0,0"
             fill="#a0ecff"
             id="path1055"
             style="fill:#00ceff;fill-opacity:1;stroke-width:0.0230687" />
          <path
             inkscape:connector-curvature="0"
             d="m 66.150484,42.62699 c -0.04488,0 -0.08984,-0.01721 -0.124175,-0.05145 -0.06857,-0.06858 -0.06857,-0.179773 0,-0.248349 l 0.438936,-0.438845 c 0.06858,-0.06858 0.179683,-0.06858 0.248258,0 0.06858,0.06857 0.06858,0.179683 0,0.248349 l -0.438845,0.438845 c -0.03424,0.03424 -0.07921,0.05145 -0.124174,0.05145 z m 0,0"
             fill="#a0ecff"
             id="path1057"
             style="fill:#00ceff;fill-opacity:1;stroke-width:0.0230687" />
          <path
             inkscape:connector-curvature="0"
             d="m 66.636458,40.427355 c -0.04497,0 -0.08984,-0.01721 -0.124175,-0.05145 -0.06857,-0.06857 -0.06857,-0.179773 0,-0.248348 l 1.353393,-1.353303 c 0.06858,-0.06858 0.179773,-0.06858 0.248349,0 0.06848,0.06857 0.06848,0.179684 0,0.248259 l -1.353393,1.353392 c -0.03433,0.03424 -0.0793,0.05145 -0.124174,0.05145 z m 0,0"
             fill="#a0ecff"
             id="path1059"
             style="fill:#00ceff;fill-opacity:1;stroke-width:0.0230687" />
          <path
             inkscape:connector-curvature="0"
             d="m 67.656706,42.62699 c -3.6e-4,0 -6.3e-4,0 -9.02e-4,0 h -0.0024 c -0.09696,-5.4e-4 -0.175178,-0.07948 -0.174727,-0.176439 4.49e-4,-0.09669 0.07894,-0.174818 0.175538,-0.174818 h 9.02e-4 0.0024 c 0.09696,5.4e-4 0.175178,0.07948 0.174727,0.17644 -4.5e-4,0.09669 -0.07903,0.174817 -0.175538,0.174817 z m 0,0"
             fill="#a0ecff"
             id="path1073"
             style="fill:#00ceff;fill-opacity:1;stroke-width:0.0230687" />
          <path
             inkscape:connector-curvature="0"
             d="m 69.747035,41.43679 c -2.7e-4,0 -5.4e-4,0 -8.12e-4,0 h -0.0024 c -0.09696,-4.5e-4 -0.175268,-0.07948 -0.174817,-0.176439 4.49e-4,-0.09669 0.07903,-0.174727 0.175628,-0.174727 h 8.1e-4 0.0024 c 0.09696,4.5e-4 0.175268,0.07939 0.174817,0.176349 -5.4e-4,0.09669 -0.07903,0.174817 -0.175628,0.174817 z m 0,0"
             fill="#a0ecff"
             id="path1075"
             style="fill:#00ceff;fill-opacity:1;stroke-width:0.0230687" />
          <path
             inkscape:connector-curvature="0"
             d="m 60.984991,43.03754 h -0.0024 c -0.09696,0 -0.175628,-0.07867 -0.175628,-0.175628 0,-0.09696 0.07867,-0.175538 0.175628,-0.175538 h 0.0024 c 0.09696,0 0.175539,0.07858 0.175539,0.175538 0,0.09705 -0.07858,0.175628 -0.175539,0.175628 z m 0,0"
             fill="#a0ecff"
             id="path1077"
             style="fill:#00ceff;fill-opacity:1;stroke-width:0.0230687" />
        </g>
        <path
           style="fill:#999999;fill-opacity:1;stroke-width:0.0230687"
           id="path1061"
           fill="#6d6d6d"
           d="m 70.340333,36.179114 c -0.09588,-1.5848 -1.411335,-2.840512 -3.020286,-2.840512 -1.297613,0 -2.404279,0.816776 -2.834293,1.964262 -1.117479,0.01352 -2.019231,0.923018 -2.019231,2.043651 0,1.129014 0.915268,2.044282 2.044282,2.044282 h 5.773478 c 0.887243,0 1.606517,-0.719275 1.606517,-1.606518 0,-0.868499 -0.689177,-1.575609 -1.550467,-1.605165 z m 0,0"
           inkscape:connector-curvature="0" />
        <path
           style="fill:#e5e2e1;fill-opacity:1;stroke-width:0.0230687"
           id="path1069"
           fill="#a09d9c"
           d="m 62.026236,37.094742 c 0.06858,-1.133069 1.008984,-2.030765 2.159265,-2.030765 0.927703,0 1.718887,0.584017 2.026349,1.404306 0.798843,0.0096 1.443504,0.659891 1.443504,1.461077 0,0.807133 -0.654303,1.461437 -1.461437,1.461437 -0.33792,0 -3.780379,0 -4.127581,0 -0.634299,0 -1.148568,-0.514179 -1.148568,-1.148568 0,-0.620872 0.492732,-1.12631 1.108468,-1.147487 z m 0,0"
           inkscape:connector-curvature="0" />
        <path
           style="fill:#ccc9c7;fill-opacity:1;stroke-width:0.0230687"
           id="path1071"
           fill="#82807f"
           d="m 67.655445,37.92945 c 0,0.800195 -0.64349,1.450173 -1.441433,1.461076 0.239248,-0.260333 0.385139,-0.607174 0.385139,-0.988348 0,-0.801006 -0.644571,-1.451345 -1.443685,-1.461077 -0.307462,-0.820199 -1.098555,-1.404306 -2.026349,-1.404306 -0.109576,0 -0.21726,0.0083 -0.322601,0.02397 0.374326,-0.310256 0.854713,-0.496697 1.378894,-0.496697 0.927794,0 1.718887,0.583835 2.02635,1.404305 0.799023,0.0096 1.443685,0.659711 1.443685,1.461077 z m 0,0"
           inkscape:connector-curvature="0" />
        <path
           style="fill:#666666;fill-opacity:1;stroke-width:0.0230687"
           id="path1063"
           fill="#565656"
           d="m 71.89089,37.784189 c 0,0.887243 -0.719454,1.606698 -1.606697,1.606698 h -0.124445 c 0.116425,-0.222397 0.182387,-0.475611 0.182387,-0.743965 0,-0.8685 -0.689177,-1.575609 -1.550468,-1.605256 -0.09588,-1.58471 -1.411334,-2.840511 -3.020375,-2.840511 -0.21699,0 -0.428483,0.0228 -0.632316,0.06623 0.550404,-0.572482 1.324016,-0.928695 2.181071,-0.928695 1.608951,0 2.924496,1.255531 3.020375,2.840512 0.861291,0.02938 1.550468,0.736576 1.550468,1.604985 z m 0,0"
           inkscape:connector-curvature="0" />
      </g>
      <text
         xml:space="preserve"
         style="font-style:normal;font-variant:normal;font-weight:bold;font-stretch:normal;font-size:10.6195px;line-height:1.25;font-family:'Zilla Slab Highlight';-inkscape-font-specification:'Zilla Slab Highlight Bold';font-variant-ligatures:normal;font-variant-caps:normal;font-variant-numeric:normal;font-variant-east-asian:normal;fill:#000000;fill-opacity:1;stroke:none;stroke-width:0.265487"
         x="15.528201"
         y="42.86322"
         id="text20"><tspan
           sodipodi:role="line"
           x="15.528201"
           y="42.86322"
           style="font-style:normal;font-variant:normal;font-weight:bold;font-stretch:normal;font-size:10.6195px;font-family:'Zilla Slab Highlight';-inkscape-font-specification:'Zilla Slab Highlight Bold';font-variant-ligatures:normal;font-variant-caps:normal;font-variant-numeric:normal;font-variant-east-asian:normal;fill:#000000;stroke-width:0.265487"
           id="tspan22"> Random // </tspan></text>
      <text
         id="text28"
         y="57.379478"
         x="53.076992"
         style="font-style:normal;font-variant:normal;font-weight:bold;font-stretch:normal;font-size:10.6195px;line-height:1.25;font-family:'Zilla Slab Highlight';-inkscape-font-specification:'Zilla Slab Highlight Bold';font-variant-ligatures:normal;font-variant-caps:normal;font-variant-numeric:normal;font-variant-east-asian:normal;fill:#000000;fill-opacity:1;stroke:none;stroke-width:0.265487"
         xml:space="preserve"><tspan
           id="tspan26"
           style="font-style:normal;font-variant:normal;font-weight:bold;font-stretch:normal;font-size:10.6195px;font-family:'Zilla Slab Highlight';-inkscape-font-specification:'Zilla Slab Highlight Bold';font-variant-ligatures:normal;font-variant-caps:normal;font-variant-numeric:normal;font-variant-east-asian:normal;fill:#000000;stroke-width:0.265487"
           y="57.379478"
           x="53.076992"
           sodipodi:role="line"> // Storms </tspan></text>
    </g>
  </g>
</svg>
